:SAMPLES-PER-SECOND 30
:FULLY-SPECIFIED
:DEGREES
353
root  -73.5474 34.6317 32.25 -164.616 52.8808 -178.431
RightUpLeg  -32.1867 -8.05023 3.18933
RightLeg  27.7458 -3.88814 -1.74144
RightFoot  1.7313 0.0105397 0.0156491
RightToes  -18.6402 -0.0737335 -0.1658
Spine  -0.822987 0.00649148 -1.22822
Spine1  -1.71828 0.0409334 -1.81908
HEad  -78.793 1.08501 9.46659
LeftShoulder1  -1.94126e-019 -3.10601e-018 -2.51263e-017
LeftArm  -0.15014 28.5095 -67.5848
LeftForeArm  31.5627 -26.4096 -3.94631
LeftHand  -0.313509 -2.44211 4.85707
RightShoulder  -4.96962e-017 0 -2.36833e-017
RightArm  -24.1133 -22.6178 79.5791
RightForeArm  54.9998 18.4256 1.30827
RightHand  -0.508689 1.13913 -9.17252
LeftUpLeg  -9.70141 4.68967 -4.35178
LeftLeg  7.98831 12.9192 0.963454
LeftFoot  -4.42848 -0.0398739 -0.869695
LeftToes  -15.3988 1.87998e-006 4.79886e-008
354
root  -73.1639 34.5789 32.0802 -163.835 53.6123 -177.956
RightUpLeg  -33.5166 -7.99111 3.82453
RightLeg  25.8397 -3.64355 -1.48787
RightFoot  2.67384 0.0162572 -0.0597705
RightToes  -19.1473 -0.0771161 -0.169931
Spine  -0.641781 -0.20022 -0.99704
Spine1  -1.34835 -0.395757 -1.37902
HEad  -79.9333 2.31714 9.39808
LeftShoulder1  -1.94126e-019 -3.10601e-018 -2.51263e-017
LeftArm  -0.207666 26.2272 -67.3274
LeftForeArm  30.4935 -25.9083 -3.93223
LeftHand  -0.325716 -2.12471 5.22706
RightShoulder  -4.96962e-017 0 -2.36833e-017
RightArm  -25.5611 -22.801 79.2076
RightForeArm  54.5807 17.5869 1.17437
RightHand  -0.486522 0.753056 -9.29711
LeftUpLeg  -9.37571 4.92335 -4.036
LeftLeg  8.00609 13.4148 1.00393
LeftFoot  -5.10773 -0.0553132 -1.07853
LeftToes  -14.9841 1.87998e-006 4.79886e-008
355
root  -72.7424 34.5076 31.899 -162.858 54.2604 -177.438
RightUpLeg  -34.9857 -8.06552 4.60197
RightLeg  23.6942 -3.52728 -1.28749
RightFoot  3.33457 0.0210738 -0.112674
RightToes  -19.878 -0.0807799 -0.175841
Spine  -0.551104 -0.430812 -0.744525
Spine1  -1.15403 -0.886525 -0.881682
HEad  -80.4114 3.46387 9.10343
LeftShoulder1  -1.94126e-019 -3.10601e-018 -2.51263e-017
LeftArm  -3.57481 23.6727 -67.8966
LeftForeArm  31.9322 -23.7223 -3.68727
LeftHand  -0.336637 -1.95079 5.51059
RightShoulder  -4.96962e-017 0 -2.36833e-017
RightArm  -26.7098 -22.7571 78.745
RightForeArm  54.1249 16.5233 1.07821
RightHand  -0.450811 0.384534 -9.13946
LeftUpLeg  -9.30165 5.29209 -3.71011
LeftLeg  8.33137 13.7381 1.10534
LeftFoot  -5.91469 -0.0761008 -1.31144
LeftToes  -14.7732 1.87998e-006 4.79886e-008
356
root  -72.2335 34.4112 31.6669 -161.689 54.9539 -176.676
RightUpLeg  -35.8331 -7.49833 5.16453
RightLeg  20.6472 -3.2 -0.977617
RightFoot  3.90195 0.0249229 -0.142157
RightToes  -20.6201 -0.0849423 -0.181789
Spine  -0.50002 -0.665429 -0.478847
Spine1  -1.03802 -1.39644 -0.352035
HEad  -80.6118 4.7544 9.03033
LeftShoulder1  -1.94126e-019 -3.10601e-018 -2.51263e-017
LeftArm  -6.75159 21.0714 -68.4039
LeftForeArm  32.6645 -21.0938 -3.54456
LeftHand  -0.376048 -1.06296 6.904
RightShoulder  -4.96962e-017 0 -2.36833e-017
RightArm  -27.8171 -23.1744 78.425
RightForeArm  54.8036 15.7692 1.07942
RightHand  -0.452422 0.299327 -9.30146
LeftUpLeg  -9.31636 5.84014 -3.25814
LeftLeg  9.21652 13.9961 1.34127
LeftFoot  -7.01642 -0.109267 -1.62062
LeftToes  -14.4808 1.87998e-006 4.79886e-008
357
root  -71.652 34.2851 31.3767 -160.647 55.7426 -176.019
RightUpLeg  -36.5975 -6.75123 5.43234
RightLeg  18.0793 -2.15739 -0.554595
RightFoot  4.3346 0.0244645 -0.100543
RightToes  -20.9888 -0.0894956 -0.188074
Spine  -0.443721 -0.890576 -0.231554
Spine1  -0.910532 -1.88988 0.157974
HEad  -80.6773 6.02135 8.84243
LeftShoulder1  -1.94126e-019 -3.10601e-018 -2.51263e-017
LeftArm  -11.3133 18.5794 -69.1333
LeftForeArm  34.5243 -18.3274 -3.26807
LeftHand  -0.420168 -0.61606 8.23402
RightShoulder  -4.96962e-017 0 -2.36833e-017
RightArm  -28.7059 -23.6613 78.1513
RightForeArm  55.9564 15.2242 1.10028
RightHand  -0.7565 2.1836 -11.764
LeftUpLeg  -9.36146 6.11505 -2.90406
LeftLeg  10.64 14.5855 1.75889
LeftFoot  -8.44011 -0.164997 -2.07428
LeftToes  -13.8373 1.87998e-006 4.79886e-008
358
root  -70.9809 34.1486 31.0624 -159.247 56.5674 -174.913
RightUpLeg  -37.231 -6.23827 6.29003
RightLeg  16.2768 -1.29176 -0.288919
RightFoot  5.11775 0.0272264 -0.0665614
RightToes  -21.9442 -0.09256 -0.192268
Spine  -0.457792 -1.18278 0.138403
Spine1  -0.931597 -2.50982 0.920206
HEad  -80.4818 7.40432 8.30856
LeftShoulder1  -1.94126e-019 -3.10601e-018 -2.51263e-017
LeftArm  -15.5507 17.0771 -69.9975
LeftForeArm  34.8625 -16.7483 -3.0187
LeftHand  -0.435694 0.234302 9.86194
RightShoulder  -4.96962e-017 0 -2.36833e-017
RightArm  -28.7742 -24.2154 77.6915
RightForeArm  56.5808 14.7591 1.14363
RightHand  -0.826051 2.67219 -12.0793
LeftUpLeg  -9.60727 5.89816 -2.31274
LeftLeg  12.8683 15.861 2.52904
LeftFoot  -9.8608 -0.246376 -2.6939
LeftToes  -13.2872 1.87998e-006 4.79886e-008
359
root  -70.1969 33.9922 30.7176 -157.655 57.2246 -173.454
RightUpLeg  -37.2608 -5.48781 7.09847
RightLeg  15.1407 -0.381707 -0.0774007
RightFoot  6.15095 0.0293718 -0.00774777
RightToes  -21.6362 -0.0907667 -0.189846
Spine  -0.45318 -1.46825 0.499777
Spine1  -0.920274 -3.11665 1.66202
HEad  -80.3651 8.95935 7.9322
LeftShoulder1  -1.94126e-019 -3.10601e-018 -2.51263e-017
LeftArm  -18.3073 16.4432 -70.6058
LeftForeArm  33.8014 -17.493 -3.16518
LeftHand  -0.466166 0.669706 11.4822
RightShoulder  -4.96962e-017 0 -2.36833e-017
RightArm  -28.9184 -24.8262 77.4546
RightForeArm  56.6121 14.3114 1.20759
RightHand  -0.342439 -1.31305 -9.64874
LeftUpLeg  -9.83528 5.49057 -1.44506
LeftLeg  15.7763 17.2399 3.63165
LeftFoot  -11.7436 -0.384093 -3.5719
LeftToes  -11.6617 1.87998e-006 4.79886e-008
360
root  -69.233 33.8259 30.3473 -155.073 57.8843 -170.775
RightUpLeg  -36.7603 -4.34055 8.56761
RightLeg  15.997 -0.555799 -0.121633
RightFoot  7.04987 0.0366203 -0.0535316
RightToes  -14.9611 -0.0551854 -0.135125
Spine  -0.538948 -1.60811 1.08097
Spine1  -1.10381 -3.43623 2.83897
HEad  -80.1044 10.6927 7.36417
LeftShoulder1  -1.94126e-019 -3.10601e-018 -2.51263e-017
LeftArm  -19.1798 17.0039 -71.4405
LeftForeArm  31.8367 -20.1305 -3.68973
LeftHand  -0.441381 1.07365 11.8486
RightShoulder  -4.96962e-017 0 -2.36833e-017
RightArm  -29.4362 -25.6093 77.0028
RightForeArm  57.7477 13.8902 1.25262
RightHand  -0.343974 -1.12252 -9.27994
LeftUpLeg  -9.84466 6.56779 0.167658
LeftLeg  18.9541 17.1401 4.59806
LeftFoot  -13.2437 -0.491679 -4.07185
LeftToes  -13.3017 1.87998e-006 4.79886e-008
361
root  -68.181 33.6938 29.9521 -153.129 57.6511 -168.488
RightUpLeg  -35.7193 -3.84961 9.89793
RightLeg  17.4288 -1.53731 -0.376778
RightFoot  7.00271 0.0446735 -0.183219
RightToes  -17.793 -0.0695002 -0.158844
Spine  -0.628625 -1.92385 1.71713
Spine1  -1.31368 -4.09833 4.12548
HEad  -79.667 12.1159 6.74005
LeftShoulder1  -1.94126e-019 -3.10601e-018 -2.51263e-017
LeftArm  -18.4662 17.5972 -72.4244
LeftForeArm  30.5632 -23.0561 -4.26427
LeftHand  -0.458212 0.670517 11.2878
RightShoulder  -4.96962e-017 0 -2.36833e-017
RightArm  -29.7246 -26.5933 76.659
RightForeArm  56.7312 13.9582 1.25599
RightHand  -0.257454 -1.91613 -8.38336
LeftUpLeg  -10.103 7.94489 2.10828
LeftLeg  23.3109 15.6526 5.49319
LeftFoot  -13.1703 -0.453897 -3.76877
LeftToes  -20.2568 1.87998e-006 4.79886e-008
